#N canvas 484 91 645 560 10;
#X obj 379 101 nbx 5 14 -1e+37 1e+37 0 0 empty empty empty 0 -8 0 10
-262144 -1 -1 86 256;
#X obj 376 141 moses 90;
#X obj 365 177 bang;
#X msg 355 216 0;
#X obj 329 373 + 100;
#X obj 220 306 vol~;
#X obj 214 348 outlet~;
#X obj 301 464 nbx 5 14 -1e+37 1e+37 0 0 empty empty empty 0 -8 0 10
-262144 -1 -1 63 256;
#X floatatom 426 180 5 0 0 0 - - -;
#X obj 428 221 expr ($f1-90)/10;
#X floatatom 426 256 5 0 0 0 - - -;
#X obj 421 281 + 90;
#X obj 420 308 -;
#X floatatom 414 340 5 0 0 0 - - -;
#X obj 25 281 sig~;
#X obj 25 340 s~ input;
#X obj 201 21 r~ input;
#X obj 376 64 env~ 1024;
#X obj 311 427 env~ 1024;
#X obj 186 107 delwrite~ comps 25;
#X obj 218 165 delread~ comps 25;
#X msg 28 212 1;
#X connect 0 0 1 0;
#X connect 0 0 12 1;
#X connect 1 0 2 0;
#X connect 1 1 8 0;
#X connect 2 0 3 0;
#X connect 3 0 4 0;
#X connect 4 0 5 1;
#X connect 5 0 6 0;
#X connect 5 0 18 0;
#X connect 8 0 9 0;
#X connect 9 0 10 0;
#X connect 10 0 11 0;
#X connect 11 0 12 0;
#X connect 12 0 13 0;
#X connect 13 0 4 0;
#X connect 14 0 15 0;
#X connect 16 0 17 0;
#X connect 16 0 19 0;
#X connect 17 0 0 0;
#X connect 18 0 7 0;
#X connect 20 0 5 0;
#X connect 21 0 14 0;
