#N canvas 646 155 440 428 10;
#X obj 28 292 vline~;
#X obj 28 133 soundfiler;
#X floatatom 28 162 10 0 0 0 - - -;
#X msg 28 260 1 \, \$1 \$2;
#X obj 28 232 pack f f;
#X floatatom 73 209 10 0 0 0 - - -;
#X obj 28 11 inlet;
#X obj 28 385 throw~ busA;
#X obj 104 282 table Sample\$0;
#X obj 73 58 float \$0;
#X floatatom 88 81 5 0 0 0 - - -;
#X obj 28 81 pack f f;
#X obj 28 34 t f b;
#X obj 28 324 tabread4~ Sample\$0;
#X msg 28 104 read -resize \$1.wav Sample\$2;
#X obj 73 187 / 48;
#X obj 29 358 *~ 2;
#X connect 0 0 13 0;
#X connect 1 0 2 0;
#X connect 2 0 4 0;
#X connect 2 0 15 0;
#X connect 3 0 0 0;
#X connect 4 0 3 0;
#X connect 5 0 4 1;
#X connect 6 0 12 0;
#X connect 9 0 11 1;
#X connect 9 0 10 0;
#X connect 11 0 14 0;
#X connect 12 0 11 0;
#X connect 12 1 9 0;
#X connect 13 0 16 0;
#X connect 14 0 1 0;
#X connect 15 0 5 0;
#X connect 16 0 7 0;
