#N canvas 484 55 937 763 10;
#X obj 97 -65 readsf~;
#X obj 92 0 output~;
#X obj -89 291 catch~ busA;
#X obj -85 260 player;
#X obj 305 -99 vsl 15 128 3 1 0 0 empty empty empty 0 -9 0 10 -262144
-1 -1 0 1;
#X obj -65 331 hip~;
#X floatatom -3 306 5 0 0 0 - - -;
#X obj -26 402 bp~ 1200;
#X floatatom 71 345 5 0 0 0 - - -;
#X obj -17 465 freeverb~;
#X msg 97 -102 open 1.wav \, start;
#X msg -232 374 roomsize \$1;
#X msg -151 375 width \$1;
#X obj -72 -101 hsl 128 15 0 1 0 0 empty empty empty -2 -8 0 10 -262144
-1 -1 0 1;
#X obj -74 -56 hsl 128 15 0 1.5 0 0 empty empty empty -2 -8 0 10 -262144
-1 -1 0 1;
#X msg -158 -109 2;
#X msg 164 -77 stop;
#X obj 0 344 * 600;
#X obj 0 273 * 50;
#X obj 180 288 delwrite~ comps 25;
#X obj 335 251 env~ 1024;
#X obj 338 288 nbx 5 14 0 100 0 0 empty empty empty 0 -8 0 10 -262144
-1 -1 0 256;
#X obj 335 323 moses 90;
#X obj 324 364 bang;
#X msg 314 403 0;
#X obj 288 560 + 100;
#X obj 177 352 delread~ comps 25;
#X obj 218 444 vol~;
#X obj 270 614 env~ 1024;
#X obj 260 651 nbx 5 14 -1e+37 1e+37 0 0 empty empty empty 0 -8 0 10
-262144 -1 -1 0 256;
#X floatatom 424 318 5 0 0 0 - - -;
#X obj 426 359 expr ($f1-90)/10;
#X floatatom 424 394 5 0 0 0 - - -;
#X obj 419 419 + 90;
#X obj 418 446 -;
#X floatatom 373 527 5 0 0 0 - - -;
#X obj -62 12 hsl 128 20 0 1 0 1 empty empty pan_position 6 10 1 11
-262144 -1 -1 5900 0;
#X obj 55 646 square_root_pan~;
#X obj 0 427 lop~ 8000;
#X obj 6 528 *~ 2;
#X msg -86 375 wet \$1;
#X obj -74 -22 hsl 128 15 0.5 1.5 0 0 empty empty empty -2 -8 0 10
-262144 -1 -1 0 1;
#N canvas 759 22 450 300 mapping 0;
#X obj 46 66 inlet;
#X obj 50 228 outlet;
#X obj 51 161 expr ($f1-$f2)/($f3-$f2)*($f5-$f4)+$f4;
#X obj 52 127 pack f 0 1 0 1;
#X connect 0 0 3 0;
#X connect 2 0 1 0;
#X connect 3 0 2 0;
#X restore 557 411 pd mapping;
#N canvas 759 22 450 300 mapping 0;
#X obj 46 66 inlet;
#X obj 50 228 outlet;
#X obj 51 161 expr ($f1-$f2)/($f3-$f2)*($f5-$f4)+$f4;
#X obj 52 127 pack f 0 1 1 3;
#X connect 0 0 3 0;
#X connect 2 0 1 0;
#X connect 3 0 2 0;
#X restore 552 441 pd mapping;
#X text 96 -121 start 2;
#X msg -44 232 1;
#X text -74 -119 roomsize;
#X text -76 -76 width;
#X text -69 -38 wet;
#X text -164 -128 start;
#N canvas 1 53 525 383 click_me 0;
#X obj 33 48 inlet~;
#X obj 244 58 inlet;
#X obj 33 332 outlet~;
#X obj 91 332 outlet~;
#X text 40 352 left;
#X text 94 352 right;
#X obj 244 134 expr if($f1 > 0 \, $f1 \, 0);
#X obj 244 115 expr if($f1 < 1 \, $f1 \, 1);
#X text 257 101 filter so 0 < f < 1;
#X obj 33 273 pan_core~;
#X obj 319 54 loadbang;
#X msg 319 74 0.5;
#X obj 90 249 sqrt;
#X obj 60 168 expr sqrt(1 - $f1);
#X text 20 27 [square_root_pan~];
#X connect 0 0 9 0;
#X connect 1 0 7 0;
#X connect 6 0 12 0;
#X connect 6 0 13 0;
#X connect 7 0 6 0;
#X connect 9 0 2 0;
#X connect 9 1 3 0;
#X connect 10 0 11 0;
#X connect 11 0 7 0;
#X connect 12 0 9 2;
#X connect 13 0 9 1;
#X restore 56 582 pd click_me;
#X obj 99 -27 *~ 0.2;
#X connect 0 0 51 0;
#X connect 2 0 5 0;
#X connect 2 0 19 0;
#X connect 2 0 20 0;
#X connect 4 0 8 0;
#X connect 4 0 17 0;
#X connect 4 0 18 0;
#X connect 5 0 7 0;
#X connect 6 0 5 1;
#X connect 7 0 38 0;
#X connect 8 0 7 2;
#X connect 9 0 39 0;
#X connect 9 1 39 0;
#X connect 10 0 0 0;
#X connect 11 0 9 0;
#X connect 12 0 9 0;
#X connect 13 0 11 0;
#X connect 14 0 12 0;
#X connect 15 0 3 0;
#X connect 16 0 0 0;
#X connect 17 0 7 1;
#X connect 18 0 6 0;
#X connect 20 0 21 0;
#X connect 21 0 22 0;
#X connect 21 0 34 1;
#X connect 22 0 23 0;
#X connect 22 1 30 0;
#X connect 23 0 24 0;
#X connect 24 0 25 0;
#X connect 25 0 27 1;
#X connect 26 0 27 0;
#X connect 27 0 28 0;
#X connect 28 0 29 0;
#X connect 30 0 31 0;
#X connect 31 0 32 0;
#X connect 32 0 33 0;
#X connect 33 0 34 0;
#X connect 34 0 35 0;
#X connect 35 0 25 0;
#X connect 36 0 50 1;
#X connect 38 0 9 0;
#X connect 39 0 50 0;
#X connect 40 0 9 0;
#X connect 41 0 40 0;
#X connect 45 0 3 0;
#X connect 50 0 1 0;
#X connect 50 1 1 1;
#X connect 51 0 1 0;
#X connect 51 0 1 1;
